<svg width="89" height="72" viewBox="0 0 89 72" fill="none" xmlns="http://www.w3.org/2000/svg">
<path d="M85.656 14.328C85.656 11.32 82.136 9.24 75.096 8.088C71 7.448 66.296 7.128 60.984 7.128C55.736 7.128 49.944 7.448 43.608 8.088C27.864 9.688 16.344 11.992 9.048 15C3.224 17.304 1.688 19.832 4.44 22.584C4.76 22.904 4.696 23.064 4.248 23.064C3.8 23.064 3.416 22.904 3.096 22.584C2.008 21.496 1.464 20.248 1.464 18.84C1.464 17.368 1.784 15.992 2.424 14.712C3 13.368 4.088 11.992 5.688 10.584C7.288 9.176 9.208 8.024 11.448 7.128C18.296 4.44 26.264 2.52 35.352 1.368C40.664 0.727999 45.336 0.407999 49.368 0.407999C60.952 0.407999 70.552 1.88 78.168 4.824C83.16 6.808 86.296 8.92 87.576 11.16C88.28 12.312 88.632 13.464 88.632 14.616C88.632 15.768 88.28 16.952 87.576 18.168C86.744 19.32 85.848 19.992 84.888 20.184C83.928 20.376 83.48 20.216 83.544 19.704C83.672 19.128 84.056 18.328 84.696 17.304C85.336 16.28 85.656 15.288 85.656 14.328ZM29.208 58.104C28.76 60.984 28.536 62.968 28.536 64.056C28.536 67.64 29.656 69.72 31.896 70.296C32.216 70.424 32.568 70.488 32.952 70.488L35.544 69.432C36.056 68.984 36.312 68.92 36.312 69.24C36.312 69.56 36.12 69.848 35.736 70.104C34.712 71 33.368 71.448 31.704 71.448C31.384 71.448 31.064 71.448 30.744 71.448C25.048 71 22.2 67.736 22.2 61.656C22.2 58.328 22.936 54.552 24.408 50.328C25.88 46.104 28.056 41.816 30.936 37.464C33.816 33.048 40.088 24.056 49.752 10.488C50.52 9.464 51.096 8.952 51.48 8.952C51.928 8.952 52.248 9.048 52.44 9.24C52.632 9.432 52.728 9.624 52.728 9.816C52.728 10.008 52.696 10.168 52.632 10.296C39 30.584 31.192 46.52 29.208 58.104Z" fill="black"/>
</svg>
