<svg width="124" height="37" viewBox="0 0 124 37" fill="none" xmlns="http://www.w3.org/2000/svg">
<path d="M42.6952 7.664C42.6952 6.16 40.9352 5.12 37.4152 4.544C35.3672 4.224 33.0152 4.064 30.3592 4.064C27.7352 4.064 24.8392 4.224 21.6712 4.544C13.7992 5.344 8.03919 6.496 4.39119 8C1.47919 9.152 0.711187 10.416 2.08719 11.792C2.24719 11.952 2.21519 12.032 1.99119 12.032C1.76719 12.032 1.57519 11.952 1.41519 11.792C0.871187 11.248 0.599187 10.624 0.599187 9.92C0.599187 9.184 0.759187 8.496 1.07919 7.856C1.36719 7.184 1.91119 6.496 2.71119 5.792C3.51119 5.088 4.47119 4.512 5.59119 4.064C9.01519 2.72 12.9992 1.76 17.5432 1.184C20.1992 0.863999 22.5352 0.704 24.5512 0.704C30.3432 0.704 35.1432 1.44 38.9512 2.912C41.4472 3.904 43.0152 4.96 43.6552 6.08C44.0072 6.656 44.1832 7.232 44.1832 7.808C44.1832 8.384 44.0072 8.976 43.6552 9.584C43.2392 10.16 42.7912 10.496 42.3112 10.592C41.8312 10.688 41.6072 10.608 41.6392 10.352C41.7032 10.064 41.8952 9.664 42.2152 9.152C42.5352 8.64 42.6952 8.144 42.6952 7.664ZM14.4712 29.552C14.2472 30.992 14.1352 31.984 14.1352 32.528C14.1352 34.32 14.6952 35.36 15.8152 35.648C15.9752 35.712 16.1512 35.744 16.3432 35.744L17.6392 35.216C17.8952 34.992 18.0232 34.96 18.0232 35.12C18.0232 35.28 17.9272 35.424 17.7352 35.552C17.2232 36 16.5512 36.224 15.7192 36.224C15.5592 36.224 15.3992 36.224 15.2392 36.224C12.3912 36 10.9672 34.368 10.9672 31.328C10.9672 29.664 11.3352 27.776 12.0712 25.664C12.8072 23.552 13.8952 21.408 15.3352 19.232C16.7752 17.024 19.9112 12.528 24.7432 5.744C25.1272 5.232 25.4152 4.976 25.6072 4.976C25.8312 4.976 25.9912 5.024 26.0872 5.12C26.1832 5.216 26.2312 5.312 26.2312 5.408C26.2312 5.504 26.2152 5.584 26.1832 5.648C19.3672 15.792 15.4632 23.76 14.4712 29.552ZM35.3808 22.4C33.9728 24.032 32.8208 25.536 31.9248 26.912C31.0608 28.256 30.6288 29.216 30.6288 29.792C30.6288 30.336 30.9488 30.608 31.5888 30.608C32.2608 30.608 33.6048 29.952 35.6208 28.64C37.6688 27.328 39.5568 25.856 41.2848 24.224C41.4448 24.064 41.5888 24 41.7168 24.032C41.8448 24.064 41.9088 24.144 41.9088 24.272C41.9088 24.4 41.8448 24.544 41.7168 24.704C37.5888 28.48 34.4368 30.848 32.2608 31.808C31.3008 32.192 30.6128 32.384 30.1968 32.384C28.6608 32.384 27.6048 32.128 27.0288 31.616C26.4848 31.104 26.2128 30.544 26.2128 29.936C26.2128 28.72 26.4528 27.792 26.9328 27.152C28.5008 24.944 29.7488 23.072 30.6768 21.536C30.9648 21.088 30.9008 20.784 30.4848 20.624C30.1008 20.432 29.6048 20.336 28.9968 20.336C28.4208 20.336 28.1168 20.32 28.0848 20.288C25.9408 23.168 23.8128 25.44 21.7008 27.104C21.4448 27.328 21.3008 27.328 21.2688 27.104C21.2688 26.848 21.4448 26.544 21.7968 26.192C24.0368 24.272 25.8768 22.24 27.3168 20.096C27.0288 19.904 26.8848 19.648 26.8848 19.328C26.8848 18.976 26.9008 18.56 26.9328 18.08C26.9968 17.6 27.2528 16.96 27.7008 16.16C28.4688 14.816 29.2688 14.144 30.1008 14.144C30.8048 14.144 31.1568 14.528 31.1568 15.296C31.1568 16.352 30.6608 17.504 29.6688 18.752C29.1888 19.328 28.7408 19.744 28.3248 20C29.5088 19.616 31.2368 19.424 33.5088 19.424C34.6288 19.424 35.4288 19.84 35.9088 20.672C35.9728 20.8 36.0048 20.992 36.0048 21.248C36.0048 21.504 35.7968 21.888 35.3808 22.4ZM49.2206 17.36C48.8686 17.072 48.7246 16.656 48.7886 16.112C48.8526 15.568 49.1406 14.992 49.6526 14.384C50.1646 13.776 50.8526 13.472 51.7166 13.472C51.9726 13.472 52.2446 13.6 52.5326 13.856C52.8206 14.08 52.9326 14.48 52.8686 15.056C52.8046 15.6 52.5486 16.128 52.1006 16.64C51.6526 17.12 51.1406 17.44 50.5646 17.6C50.0206 17.728 49.5726 17.648 49.2206 17.36ZM48.5966 19.904C47.2846 21.248 46.1806 22.96 45.2846 25.04C44.4206 27.088 43.9886 28.528 43.9886 29.36C43.9886 30.192 44.3086 30.608 44.9486 30.608C45.6206 30.608 46.7086 30.128 48.2126 29.168C49.7486 28.208 51.4926 26.848 53.4446 25.088C53.8606 24.704 54.0686 24.752 54.0686 25.232C54.0686 25.296 54.0366 25.36 53.9726 25.424C52.4366 26.768 51.1406 27.872 50.0846 28.736C49.0286 29.6 47.7646 30.432 46.2926 31.232C44.8526 32 43.6686 32.384 42.7406 32.384C41.5886 32.384 40.7246 32.128 40.1486 31.616C39.6046 31.104 39.3326 30.544 39.3326 29.936C39.3326 28.784 39.5406 27.872 39.9566 27.2C40.3726 26.528 41.0766 25.6 42.0686 24.416C41.7166 24.704 41.1566 25.184 40.3886 25.856C39.6526 26.528 39.1406 26.976 38.8526 27.2C38.5646 27.424 38.4206 27.36 38.4206 27.008C38.4206 26.784 38.6766 26.464 39.1886 26.048C39.7006 25.632 40.8046 24.576 42.5006 22.88C44.2286 21.184 45.3966 20.176 46.0046 19.856C46.6446 19.536 47.1566 19.376 47.5406 19.376C47.9566 19.376 48.2606 19.44 48.4526 19.568C48.6446 19.664 48.6926 19.776 48.5966 19.904ZM49.8187 29.36C49.7867 29.328 49.7707 29.28 49.7707 29.216C49.7707 29.152 49.8347 29.12 49.9627 29.12C50.0587 29.12 50.1227 29.184 50.1547 29.312C50.7307 30.592 51.6747 31.232 52.9867 31.232C54.6187 31.232 56.0427 30.432 57.2587 28.832C58.1547 27.648 58.9387 26.416 59.6107 25.136C60.3147 23.824 60.8907 22.784 61.3387 22.016C61.8187 21.248 62.5387 20.384 63.4987 19.424C64.4907 18.464 65.3867 17.872 66.1867 17.648C65.9947 17.552 65.6747 17.504 65.2267 17.504C64.7787 17.504 63.9307 17.84 62.6827 18.512C61.4667 19.152 60.2507 19.984 59.0347 21.008C57.8187 22 56.5067 23.136 55.0987 24.416C53.6907 25.696 52.8427 26.448 52.5547 26.672C52.2667 26.896 52.0907 26.896 52.0267 26.672C51.9627 26.448 52.0427 26.24 52.2667 26.048C53.0987 25.344 54.2987 24.256 55.8667 22.784C57.4347 21.28 58.6187 20.192 59.4187 19.52C60.2507 18.816 61.1787 18.224 62.2027 17.744C63.2267 17.232 63.9947 16.976 64.5067 16.976C65.7867 16.976 66.5707 17.2 66.8587 17.648C66.0267 18 65.3387 18.928 64.7947 20.432C64.2827 21.936 63.6907 23.68 63.0187 25.664C62.3787 27.648 61.5627 29.2 60.5707 30.32C61.4027 30 62.6827 29.264 64.4107 28.112C66.1707 26.928 67.7227 25.648 69.0667 24.272C69.3547 24.016 69.5627 23.984 69.6907 24.176C69.6907 24.24 69.6907 24.32 69.6907 24.416C69.6907 24.48 69.3867 24.816 68.7787 25.424C68.1707 26.032 67.4187 26.72 66.5227 27.488C65.6587 28.224 64.5707 29.056 63.2587 29.984C60.5387 31.904 57.8027 32.864 55.0507 32.864C52.3307 32.864 50.5867 31.696 49.8187 29.36ZM75.9134 15.536C76.6174 14.48 77.1774 13.648 77.5934 13.04C78.0414 12.4 78.3934 11.936 78.6494 11.648C78.9054 11.36 79.4814 11.12 80.3774 10.928C81.2734 10.704 82.1374 10.592 82.9694 10.592C83.8014 10.592 84.2174 10.688 84.2174 10.88C84.2174 11.04 83.5294 11.776 82.1534 13.088C80.7774 14.4 79.1774 16.144 77.3534 18.32C79.5294 18.672 80.9534 19.36 81.6254 20.384C81.8814 20.832 81.9134 21.12 81.7214 21.248C81.5614 21.376 81.3694 21.328 81.1454 21.104C80.4734 20.432 79.4014 20.096 77.9294 20.096C77.2894 20.096 76.5694 20.16 75.7694 20.288C73.1774 23.616 71.5454 26.336 70.8734 28.448C70.6494 29.056 70.5374 29.568 70.5374 29.984C70.5374 31.104 71.0014 31.664 71.9294 31.664C72.9214 31.664 74.3134 30.976 76.1054 29.6C78.4414 27.84 80.4734 26.096 82.2014 24.368C82.5214 24.016 82.7294 23.936 82.8254 24.128C82.9214 24.32 82.8414 24.528 82.5854 24.752C79.8334 27.632 77.5134 29.76 75.6254 31.136C73.7694 32.48 72.0574 33.152 70.4894 33.152C68.3454 33.152 67.2734 32.016 67.2734 29.744C67.2734 28.656 67.5774 27.36 68.1854 25.856L67.3214 26.672C67.0654 26.928 66.8894 27.008 66.7934 26.912C66.6654 26.784 66.6014 26.672 66.6014 26.576C66.6014 26.48 66.7294 26.32 66.9854 26.096C69.3214 24.048 70.9214 22.496 71.7854 21.44C71.1774 21.664 70.7614 21.68 70.5374 21.488C70.3454 21.296 70.2014 21.04 70.1054 20.72C70.0414 20.4 70.2014 20.016 70.5854 19.568C71.0014 19.088 71.5934 18.752 72.3614 18.56C73.1614 18.336 73.7534 18.208 74.1374 18.176C74.6174 17.472 75.2094 16.592 75.9134 15.536ZM98.2499 24.608C97.8979 25.024 97.5299 25.472 97.1459 25.952C96.7939 26.432 96.3299 27.088 95.7539 27.92C95.2099 28.752 94.9379 29.456 94.9379 30.032C94.9379 30.608 95.1779 30.896 95.6579 30.896C96.1699 30.896 96.9859 30.592 98.1059 29.984C100.346 28.704 102.826 26.784 105.546 24.224C105.866 23.904 106.074 23.856 106.17 24.08C106.17 24.112 106.17 24.176 106.17 24.272C106.17 24.368 106.106 24.48 105.978 24.608C100.474 29.792 96.4739 32.384 93.9779 32.384C93.2419 32.384 92.6179 32.144 92.1059 31.664C91.6259 31.152 91.3859 30.56 91.3859 29.888C91.3859 29.216 91.6739 28.192 92.2499 26.816C90.8099 28.608 89.2579 30 87.5939 30.992C85.9619 31.952 84.6819 32.432 83.7539 32.432C82.8259 32.432 82.0259 32.16 81.3539 31.616C80.7139 31.04 80.3939 30.336 80.3939 29.504C80.3939 27.136 81.4499 24.816 83.5619 22.544C85.1619 20.848 87.1459 19.648 89.5139 18.944C90.5699 18.592 91.5939 18.416 92.5859 18.416C93.6099 18.416 94.5859 18.704 95.5139 19.28C96.4739 19.824 97.0819 20.48 97.3379 21.248C98.2979 21.248 98.9859 21.6 99.4019 22.304C99.4659 22.4 99.4979 22.56 99.4979 22.784C99.4979 23.008 99.3699 23.264 99.1139 23.552C98.8899 23.84 98.6019 24.192 98.2499 24.608ZM94.7459 19.856C94.0739 19.856 93.2739 20.064 92.3459 20.48C90.7139 21.184 89.1619 22.4 87.6899 24.128C85.3539 26.88 84.1859 28.896 84.1859 30.176C84.1859 30.848 84.4579 31.184 85.0019 31.184C85.4499 31.184 86.1859 30.896 87.2099 30.32C88.2659 29.744 89.6419 28.608 91.3379 26.912C91.4339 26.816 91.8019 26.464 92.4419 25.856C93.0819 25.248 93.6259 24.72 94.0739 24.272C95.5779 22.704 96.3299 21.584 96.3299 20.912C96.3299 20.208 95.8019 19.856 94.7459 19.856ZM116.606 21.248C117.054 20.736 117.278 20.336 117.278 20.048C117.278 19.76 116.974 19.616 116.366 19.616C115.79 19.616 114.862 20.176 113.582 21.296C112.398 22.32 110.958 24.032 109.262 26.432C107.598 28.832 106.382 30.464 105.614 31.328C104.878 32.16 104.222 32.576 103.646 32.576C103.582 32.576 103.518 32.576 103.454 32.576C102.622 32.576 101.806 32.24 101.006 31.568C101.198 31.28 101.662 30.656 102.398 29.696C104.03 27.712 105.454 25.792 106.67 23.936C105.294 25.312 104.126 26.384 103.166 27.152C102.846 27.408 102.67 27.424 102.638 27.2C102.574 26.976 102.638 26.784 102.83 26.624C103.022 26.432 103.342 26.144 103.79 25.76C104.238 25.344 104.526 25.072 104.654 24.944C104.814 24.816 105.086 24.576 105.47 24.224C105.886 23.84 106.19 23.536 106.382 23.312C107.278 22.256 107.934 21.36 108.35 20.624C108.51 20.24 108.574 19.872 108.542 19.52C108.542 19.136 108.462 18.896 108.302 18.8C108.174 18.672 108.126 18.528 108.158 18.368C108.158 18.112 108.286 17.984 108.542 17.984C108.67 17.984 108.814 18.016 108.974 18.08C109.966 18.528 110.462 19.424 110.462 20.768C110.462 22.08 110.174 23.488 109.598 24.992C110.846 23.36 111.79 22.192 112.43 21.488C114.094 19.632 115.726 18.704 117.326 18.704C118.894 18.704 119.822 19.376 120.11 20.72C120.142 20.912 120.158 21.216 120.158 21.632C120.158 22.016 119.998 22.544 119.678 23.216C119.39 23.888 118.686 24.992 117.566 26.528C116.446 28.064 115.79 29.04 115.598 29.456C115.438 29.84 115.39 30.128 115.454 30.32C115.518 30.512 115.662 30.624 115.886 30.656C116.27 30.72 116.926 30.464 117.854 29.888C119.166 28.96 120.862 27.536 122.942 25.616C123.294 25.264 123.47 25.296 123.47 25.712C123.47 25.872 123.39 26.032 123.23 26.192C120.126 29.072 117.822 30.864 116.318 31.568C114.558 32.464 113.182 32.608 112.19 32C111.582 31.616 111.278 31.088 111.278 30.416C111.278 29.712 111.406 29.008 111.662 28.304C112.238 26.672 113.886 24.32 116.606 21.248Z" fill="#333333"/>
</svg>
